<svg xmlns="http://www.w3.org/2000/svg" xmlns:xlink="http://www.w3.org/1999/xlink" xmlns:serif="http://www.serif.com/" width="100%" height="100%" viewBox="0 0 1843 760" xml:space="preserve" style="fill-rule:evenodd;clip-rule:evenodd;stroke-linejoin:round;stroke-miterlimit:2;">    <g transform="matrix(1,0,0,1,-2157,-3377)">        <g transform="matrix(1,0,0,1.80942,0,0)">            <g id="logo-acumuladores-yepez-completo.svg" serif:id="logo acumuladores yepez completo.svg" transform="matrix(4.16667,0,0,2.30276,3078.79,2076.31)">                <g transform="matrix(1,0,0,1,-221,-91)">                    <g id="logo-acumuladores-yepez-completo" serif:id="logo acumuladores yepez completo" transform="matrix(1.00663,0,0,1.00663,-1387.57,-3574.45)">                        <g>                            <g id="logo-acumuladores-yepez-completo1" serif:id="logo acumuladores yepez completo">                                <g transform="matrix(0.134274,0,0,0.134274,1800.42,3690.99)">                                    <text x="0px" y="0px" style="font-family:'EurostileBQ-BoldExtended', 'Eurostile BQ';font-weight:500;font-size:155.486px;fill:rgb(0,2,11);">®</text>                                </g>                                <g transform="matrix(-1.13196,0.752938,-0.139029,-0.313336,3698.72,3731.5)">                                    <path d="M1398.37,3778.3C1395.42,3778 1392.5,3777.6 1389.63,3777.1L1398.47,3756.26L1392.28,3741.38C1392.58,3741.42 1392.89,3741.47 1393.19,3741.51L1408.76,3778.91C1408.47,3778.91 1408.18,3778.9 1407.89,3778.9L1401.29,3763.03L1398.37,3778.3ZM1373.15,3773.04C1329.9,3759.05 1298.93,3721.74 1298.93,3677.96C1298.93,3661.89 1303.11,3646.68 1310.54,3633.18L1312.29,3637.39L1314.3,3626.92C1317.92,3621.36 1322.12,3616.13 1326.82,3611.32C1326.62,3611.88 1326.42,3612.47 1326.23,3613.1C1319.33,3625.46 1315.41,3639.6 1315.41,3654.62C1315.41,3682.3 1328.72,3707.01 1349.49,3723.11C1349.83,3724.68 1350.21,3726.27 1350.65,3727.87C1351.51,3731.05 1352.63,3734.33 1354.02,3737.66L1361.11,3754.7L1365.27,3732.95C1368.5,3734.54 1371.85,3735.95 1375.3,3737.16L1373.15,3773.04ZM1386.04,3740.22C1386.63,3740.35 1387.21,3740.47 1387.81,3740.59L1387.02,3742.56L1386.04,3740.22ZM1489.78,3749.64C1486.39,3752.67 1482.8,3755.5 1479.01,3758.12L1464.17,3722.49C1467.86,3719.56 1471.31,3716.36 1474.48,3712.91L1489.78,3749.64ZM1452.38,3771.78C1448.26,3773.26 1444.01,3774.53 1439.66,3775.57L1437.95,3771.46L1437.05,3776.17C1435.13,3776.58 1433.2,3776.95 1431.25,3777.27L1439.05,3736.62C1443.11,3735.11 1447.03,3733.34 1450.78,3731.31L1445.97,3756.37L1452.38,3771.78ZM1493.36,3680.7C1496.02,3672.46 1497.45,3663.7 1497.45,3654.62C1497.45,3630.49 1487.35,3608.63 1471,3592.75C1502.21,3610.68 1522.92,3642.16 1522.92,3677.96C1522.92,3694.23 1518.65,3709.6 1511.06,3723.21L1493.36,3680.7Z" style="fill:rgb(255,0,16);"></path>                                </g>                                <g transform="matrix(0.540434,0,-0.0919117,0.540434,619.611,2712.9)">                                    <path d="M1754.09,1649.59L1743.51,1649.59L1740.76,1641.57L1726.05,1641.57L1723.3,1649.59L1712.98,1649.59L1727.64,1609.9L1739.43,1609.9L1754.09,1649.59ZM1738.28,1634.29L1733.4,1620.05L1728.53,1634.29L1738.28,1634.29ZM1798.08,1650.37C1795.13,1650.37 1792.4,1649.93 1789.9,1649.06C1787.41,1648.19 1785.27,1646.89 1783.47,1645.17C1781.68,1643.44 1780.28,1641.29 1779.29,1638.72C1778.31,1636.14 1777.82,1633.16 1777.82,1629.79C1777.82,1626.64 1778.29,1623.79 1779.23,1621.23C1780.17,1618.67 1781.54,1616.47 1783.34,1614.64C1785.06,1612.88 1787.19,1611.52 1789.74,1610.56C1792.3,1609.6 1795.09,1609.12 1798.11,1609.12C1799.78,1609.12 1801.28,1609.22 1802.61,1609.42C1803.97,1609.59 1805.21,1609.83 1806.35,1610.14C1807.54,1610.47 1808.61,1610.86 1809.57,1611.28C1810.55,1611.69 1811.4,1612.07 1812.13,1612.43L1812.13,1622.05L1810.96,1622.05C1810.46,1621.63 1809.83,1621.12 1809.07,1620.53C1808.32,1619.95 1807.47,1619.37 1806.51,1618.8C1805.53,1618.23 1804.47,1617.75 1803.33,1617.36C1802.2,1616.97 1800.98,1616.78 1799.68,1616.78C1798.24,1616.78 1796.87,1617.01 1795.58,1617.47C1794.28,1617.91 1793.08,1618.66 1791.98,1619.71C1790.93,1620.72 1790.08,1622.06 1789.42,1623.73C1788.78,1625.4 1788.46,1627.43 1788.46,1629.81C1788.46,1632.3 1788.8,1634.38 1789.5,1636.05C1790.21,1637.72 1791.1,1639.04 1792.16,1640C1793.25,1640.97 1794.46,1641.67 1795.79,1642.1C1797.12,1642.51 1798.44,1642.72 1799.74,1642.72C1800.98,1642.72 1802.2,1642.53 1803.41,1642.15C1804.64,1641.78 1805.77,1641.28 1806.8,1640.64C1807.67,1640.12 1808.48,1639.57 1809.23,1638.98C1809.97,1638.4 1810.59,1637.89 1811.07,1637.46L1812.13,1637.46L1812.13,1646.95C1811.14,1647.4 1810.19,1647.82 1809.28,1648.21C1808.37,1648.6 1807.42,1648.94 1806.43,1649.22C1805.13,1649.59 1803.91,1649.88 1802.77,1650.07C1801.64,1650.27 1800.07,1650.37 1798.08,1650.37ZM1874.76,1635.22C1874.76,1640.13 1873.26,1643.89 1870.28,1646.5C1867.29,1649.11 1862.89,1650.42 1857.08,1650.42C1851.27,1650.42 1846.87,1649.11 1843.88,1646.5C1840.92,1643.89 1839.43,1640.14 1839.43,1635.25L1839.43,1609.9L1849.72,1609.9L1849.72,1634.66C1849.72,1637.42 1850.3,1639.47 1851.46,1640.82C1852.61,1642.17 1854.49,1642.85 1857.08,1642.85C1859.64,1642.85 1861.51,1642.2 1862.68,1640.9C1863.87,1639.61 1864.47,1637.53 1864.47,1634.66L1864.47,1609.9L1874.76,1609.9L1874.76,1635.22ZM1946.29,1649.59L1936.1,1649.59L1936.1,1623.01L1928.74,1640.26L1921.68,1640.26L1914.32,1623.01L1914.32,1649.59L1904.67,1649.59L1904.67,1609.9L1916.56,1609.9L1925.49,1629.81L1934.4,1609.9L1946.29,1609.9L1946.29,1649.59ZM2011.53,1635.22C2011.53,1640.13 2010.03,1643.89 2007.05,1646.5C2004.06,1649.11 1999.66,1650.42 1993.85,1650.42C1988.04,1650.42 1983.64,1649.11 1980.65,1646.5C1977.68,1643.89 1976.2,1640.14 1976.2,1635.25L1976.2,1609.9L1986.49,1609.9L1986.49,1634.66C1986.49,1637.42 1987.07,1639.47 1988.22,1640.82C1989.38,1642.17 1991.25,1642.85 1993.85,1642.85C1996.41,1642.85 1998.28,1642.2 1999.45,1640.9C2000.64,1639.61 2001.23,1637.53 2001.23,1634.66L2001.23,1609.9L2011.53,1609.9L2011.53,1635.22ZM2070.07,1649.59L2041.44,1649.59L2041.44,1609.9L2051.68,1609.9L2051.68,1641.91L2070.07,1641.91L2070.07,1649.59ZM2133.26,1649.59L2122.67,1649.59L2119.93,1641.57L2105.21,1641.57L2102.46,1649.59L2092.15,1649.59L2106.81,1609.9L2118.59,1609.9L2133.26,1649.59ZM2117.45,1634.29L2112.57,1620.05L2107.69,1634.29L2117.45,1634.29ZM2196.82,1629.79C2196.82,1633.48 2195.97,1636.8 2194.28,1639.73C2192.59,1642.64 2190.46,1644.88 2187.88,1646.45C2185.95,1647.62 2183.82,1648.44 2181.51,1648.9C2179.2,1649.36 2176.46,1649.59 2173.3,1649.59L2159.3,1649.59L2159.3,1609.9L2173.7,1609.9C2176.93,1609.9 2179.72,1610.17 2182.07,1610.72C2184.42,1611.26 2186.39,1612.02 2187.99,1613.02C2190.73,1614.69 2192.88,1616.94 2194.44,1619.79C2196.02,1622.61 2196.82,1625.95 2196.82,1629.79ZM2186.23,1629.7C2186.23,1627.09 2185.75,1624.86 2184.79,1623.01C2183.85,1621.15 2182.35,1619.69 2180.28,1618.64C2179.24,1618.12 2178.16,1617.78 2177.06,1617.6C2175.97,1617.4 2174.33,1617.31 2172.13,1617.31L2169.54,1617.31L2169.54,1642.15L2172.13,1642.15C2174.56,1642.15 2176.35,1642.05 2177.49,1641.84C2178.62,1641.6 2179.73,1641.19 2180.82,1640.61C2182.68,1639.54 2184.05,1638.12 2184.92,1636.34C2185.8,1634.55 2186.23,1632.34 2186.23,1629.7ZM2263.57,1629.76C2263.57,1636.09 2261.76,1641.12 2258.13,1644.85C2254.51,1648.56 2249.5,1650.42 2243.1,1650.42C2236.72,1650.42 2231.71,1648.56 2228.09,1644.85C2224.46,1641.12 2222.65,1636.09 2222.65,1629.76C2222.65,1623.38 2224.46,1618.34 2228.09,1614.64C2231.71,1610.93 2236.72,1609.07 2243.1,1609.07C2249.46,1609.07 2254.46,1610.93 2258.11,1614.64C2261.75,1618.34 2263.57,1623.38 2263.57,1629.76ZM2250,1639.81C2251,1638.6 2251.74,1637.18 2252.22,1635.54C2252.7,1633.89 2252.93,1631.95 2252.93,1629.73C2252.93,1627.35 2252.66,1625.32 2252.11,1623.65C2251.56,1621.98 2250.84,1620.63 2249.95,1619.6C2249.04,1618.53 2247.99,1617.76 2246.8,1617.28C2245.63,1616.8 2244.4,1616.56 2243.12,1616.56C2241.83,1616.56 2240.6,1616.79 2239.45,1617.25C2238.31,1617.72 2237.26,1618.48 2236.3,1619.55C2235.41,1620.54 2234.68,1621.92 2234.11,1623.68C2233.56,1625.42 2233.29,1627.45 2233.29,1629.76C2233.29,1632.12 2233.55,1634.14 2234.09,1635.81C2234.64,1637.46 2235.36,1638.81 2236.25,1639.86C2237.13,1640.91 2238.17,1641.68 2239.37,1642.18C2240.56,1642.68 2241.81,1642.93 2243.12,1642.93C2244.44,1642.93 2245.69,1642.68 2246.88,1642.18C2248.07,1641.67 2249.11,1640.88 2250,1639.81ZM2329.96,1649.59L2317.45,1649.59L2306.63,1635.04L2301.91,1635.04L2301.91,1649.59L2291.73,1649.59L2291.73,1609.9L2308.89,1609.9C2311.24,1609.9 2313.26,1610.03 2314.95,1610.3C2316.64,1610.56 2318.22,1611.14 2319.69,1612.03C2321.18,1612.92 2322.37,1614.07 2323.24,1615.5C2324.13,1616.9 2324.57,1618.67 2324.57,1620.8C2324.57,1623.73 2323.89,1626.12 2322.52,1627.97C2321.17,1629.82 2319.23,1631.36 2316.71,1632.58L2329.96,1649.59ZM2313.99,1622.05C2313.99,1621.06 2313.78,1620.2 2313.37,1619.49C2312.97,1618.78 2312.26,1618.22 2311.27,1617.81C2310.58,1617.53 2309.77,1617.36 2308.84,1617.31C2307.92,1617.24 2306.84,1617.2 2305.62,1617.2L2301.91,1617.2L2301.91,1627.89L2305.06,1627.89C2306.69,1627.89 2308.06,1627.81 2309.16,1627.65C2310.26,1627.49 2311.19,1627.13 2311.93,1626.56C2312.64,1626.01 2313.16,1625.4 2313.48,1624.75C2313.82,1624.07 2313.99,1623.17 2313.99,1622.05ZM2383.49,1649.59L2354.78,1649.59L2354.78,1609.9L2383.49,1609.9L2383.49,1617.57L2364.96,1617.57L2364.96,1624.43L2382.16,1624.43L2382.16,1632.1L2364.96,1632.1L2364.96,1641.91L2383.49,1641.91L2383.49,1649.59ZM2444.2,1637.12C2444.2,1641.03 2442.53,1644.21 2439.21,1646.66C2435.91,1649.1 2431.41,1650.31 2425.72,1650.31C2422.43,1650.31 2419.56,1650.03 2417.11,1649.46C2414.68,1648.87 2412.39,1648.14 2410.26,1647.25L2410.26,1637.73L2411.38,1637.73C2413.49,1639.42 2415.86,1640.72 2418.47,1641.62C2421.1,1642.53 2423.62,1642.98 2426.04,1642.98C2426.66,1642.98 2427.48,1642.93 2428.49,1642.82C2429.51,1642.72 2430.33,1642.54 2430.97,1642.29C2431.76,1641.97 2432.39,1641.57 2432.89,1641.09C2433.41,1640.61 2433.67,1639.9 2433.67,1638.96C2433.67,1638.09 2433.29,1637.34 2432.55,1636.72C2431.82,1636.08 2430.74,1635.59 2429.32,1635.25C2427.83,1634.89 2426.24,1634.57 2424.58,1634.26C2422.92,1633.94 2421.37,1633.54 2419.91,1633.06C2416.57,1631.98 2414.16,1630.51 2412.68,1628.66C2411.23,1626.8 2410.5,1624.49 2410.5,1621.73C2410.5,1618.04 2412.15,1615.02 2415.46,1612.7C2418.78,1610.35 2423.05,1609.18 2428.25,1609.18C2430.87,1609.18 2433.44,1609.43 2435.99,1609.95C2438.55,1610.45 2440.76,1611.08 2442.62,1611.84L2442.62,1620.99L2441.53,1620.99C2439.93,1619.71 2437.97,1618.64 2435.64,1617.79C2433.33,1616.92 2430.96,1616.48 2428.55,1616.48C2427.69,1616.48 2426.84,1616.54 2425.99,1616.67C2425.15,1616.78 2424.34,1616.99 2423.56,1617.31C2422.87,1617.57 2422.27,1617.98 2421.78,1618.53C2421.28,1619.07 2421.03,1619.68 2421.03,1620.37C2421.03,1621.42 2421.43,1622.23 2422.23,1622.8C2423.03,1623.35 2424.54,1623.86 2426.76,1624.32C2428.22,1624.62 2429.61,1624.91 2430.95,1625.2C2432.3,1625.48 2433.75,1625.88 2435.29,1626.37C2438.33,1627.37 2440.57,1628.73 2442.01,1630.45C2443.47,1632.16 2444.2,1634.38 2444.2,1637.12Z" style="fill:rgb(0,74,216);"></path>                                </g>                                <g transform="matrix(2.06669,0,-0.364504,2.12992,2754.95,-4181.17)">                                    <path d="M-4.516,3686.55L-20.446,3659.01L-11.266,3659.01L-1.06,3678.24L0.668,3678.24L10.874,3659.01L20.054,3659.01L4.124,3686.61L4.124,3699.51L-4.516,3699.51L-4.516,3686.55ZM27.197,3683.05L27.197,3675.48L57.869,3675.48L57.869,3683.04L27.197,3683.05ZM27.197,3666.57L27.197,3659.01L60.353,3659.01L60.353,3666.57L27.197,3666.57ZM27.197,3691.96L60.353,3691.95L60.353,3699.51L27.197,3699.51L27.197,3691.96ZM67.1,3659.01L87.89,3659.01C90.266,3659.01 92.48,3659.32 94.532,3659.93C96.584,3660.51 98.348,3661.42 99.824,3662.68C101.336,3663.91 102.506,3665.49 103.334,3667.44C104.198,3669.38 104.63,3671.7 104.63,3674.4C104.63,3677.1 104.198,3679.41 103.334,3681.31C102.506,3683.19 101.336,3684.72 99.824,3685.9C98.348,3687.06 96.584,3687.9 94.532,3688.44C92.48,3688.98 90.266,3689.25 87.89,3689.25L75.74,3689.25L75.74,3699.51L67.1,3699.51L67.1,3659.01ZM75.74,3666.57L75.74,3681.69L88.646,3681.69C89.51,3681.69 90.374,3681.6 91.238,3681.42C92.102,3681.21 92.876,3680.83 93.56,3680.29C94.28,3679.75 94.856,3679.01 95.288,3678.07C95.72,3677.14 95.936,3675.93 95.936,3674.46C95.936,3672.98 95.72,3671.74 95.288,3670.73C94.856,3669.72 94.28,3668.91 93.56,3668.3C92.876,3667.69 92.102,3667.26 91.238,3667C90.374,3666.72 89.51,3666.57 88.646,3666.57L75.74,3666.57ZM112.477,3683.05L112.477,3675.48L143.149,3675.48L143.149,3683.04L112.477,3683.05ZM112.477,3666.57L112.477,3659.01L145.633,3659.01L145.633,3666.57L112.477,3666.57ZM112.477,3691.96L145.633,3691.95L145.633,3699.51L112.477,3699.51L112.477,3691.96ZM153.19,3659.01L186.832,3659.01L186.832,3663.98L164.422,3691.95L186.832,3691.95L186.832,3699.51L152.002,3699.51L152.002,3694.38L174.52,3666.57L153.19,3666.57L153.19,3659.01Z" style="fill:rgb(0,49,143);"></path>                                </g>                            </g>                        </g>                    </g>                </g>            </g>        </g>    </g></svg>